<?xml version="1.0" standalone="no"?>
<!DOCTYPE svg PUBLIC "-//W3C//DTD SVG 20010904//EN"
 "http://www.w3.org/TR/2001/REC-SVG-20010904/DTD/svg10.dtd">
<svg version="1.0" xmlns="http://www.w3.org/2000/svg"
 width="180.000000pt" height="180.000000pt" viewBox="0 0 180.000000 180.000000"
 preserveAspectRatio="xMidYMid meet">

<g transform="translate(0.000000,180.000000) scale(0.100000,-0.100000)"
fill="#000000" stroke="none">
<path d="M127 1715 c-3 -17 -8 -37 -11 -45 -4 -10 6 -20 32 -32 l37 -17 -28
24 c-21 19 -27 31 -22 46 7 20 8 20 41 -12 35 -34 43 -54 22 -61 -7 -3 8 -25
35 -54 41 -42 47 -53 42 -79 -5 -25 -4 -27 7 -12 11 15 12 6 10 -53 -2 -38 -6
-70 -8 -70 -3 0 -20 16 -38 35 -32 34 -68 45 -81 25 -3 -5 -12 -7 -20 -4 -10
4 -18 -4 -25 -22 -6 -16 -15 -38 -20 -49 -5 -11 -16 -54 -24 -95 -8 -41 -18
-88 -21 -105 -13 -58 -15 -101 -15 -290 0 -255 5 -312 36 -412 44 -145 87
-213 136 -213 10 0 32 16 49 35 42 46 93 63 119 40 17 -15 19 -15 31 3 10 12
45 26 109 40 125 29 153 29 174 -3 31 -48 104 -39 121 15 6 20 12 21 73 15
194 -17 180 -14 199 -52 19 -40 52 -57 88 -43 14 5 25 13 25 17 0 5 14 22 30
40 17 18 30 37 30 44 0 20 34 109 42 109 5 0 8 7 8 15 0 24 20 17 30 -10 5
-14 17 -25 25 -25 9 0 14 4 11 8 -3 5 6 31 20 58 39 77 59 89 29 17 -18 -43
-18 -46 -4 -37 7 4 10 1 7 -7 -3 -8 -11 -13 -17 -11 -6 1 -17 -10 -23 -24 -10
-22 -9 -27 5 -35 9 -6 17 -18 17 -27 0 -27 29 -62 45 -56 16 7 42 -45 70 -137
14 -48 13 -54 -1 -70 -22 -24 -15 -63 13 -67 24 -4 82 43 114 92 20 29 19 29
-15 -6 -72 -75 -119 -86 -61 -14 50 60 100 131 112 156 18 41 53 173 53 203 0
45 24 27 31 -24 l6 -44 1 50 c3 71 -32 102 -56 50 -10 -22 -18 -25 -60 -25
-69 0 -109 16 -117 47 -5 22 -10 25 -35 19 -27 -5 -38 2 -106 69 -42 41 -83
75 -90 75 -10 0 -14 14 -15 48 -1 73 -8 141 -19 183 -6 21 -8 49 -5 62 7 27
-53 210 -86 263 -24 40 -72 68 -100 59 -27 -9 -59 -45 -59 -67 0 -26 -44 -23
-62 4 -12 18 -17 19 -34 9 -12 -8 -14 -11 -3 -8 21 7 39 -11 39 -36 0 -15 3
-17 14 -8 13 11 46 5 46 -9 0 -4 -9 -15 -20 -25 -19 -17 -20 -17 -20 1 0 13
-3 15 -8 7 -12 -19 -52 -3 -58 23 -6 22 -12 24 -59 24 -29 0 -55 3 -58 8 -2 4
-2 0 1 -8 13 -44 22 -88 22 -114 l0 -29 -25 23 c-14 13 -25 29 -25 37 0 7 -7
13 -16 13 -13 0 -44 54 -44 79 0 23 28 -3 34 -31 3 -17 9 -29 12 -26 3 4 0 25
-7 47 -14 47 -7 61 22 43 18 -12 19 -11 10 6 -19 37 -61 32 -61 -6 0 -8 -6
-12 -14 -9 -17 7 -39 -16 -28 -28 4 -4 -2 -3 -12 2 -31 17 -244 201 -347 301
-52 50 -99 92 -104 92 -5 0 -28 21 -50 47 l-42 47 -6 -29z m176 -170 c-7 -21
-13 -19 -13 6 0 11 4 18 10 14 5 -3 7 -12 3 -20z m21 -20 c-4 -8 -8 -15 -10
-15 -2 0 -4 7 -4 15 0 8 4 15 10 15 5 0 7 -7 4 -15z m16 -26 c-7 -11 -14 -19
-16 -16 -7 7 7 37 17 37 6 0 5 -9 -1 -21z m113 -148 c26 -25 47 -48 47 -52 0
-6 -73 -2 -117 7 -20 4 -23 11 -23 53 0 75 5 75 93 -8z m-136 -38 c-3 -10 -5
-4 -5 12 0 17 2 24 5 18 2 -7 2 -21 0 -30z m-180 -5 c-3 -7 -5 -2 -5 12 0 14
2 19 5 13 2 -7 2 -19 0 -25z m-3 -48 c16 -48 13 -71 -4 -26 -14 37 -24 82 -17
76 3 -3 12 -25 21 -50z m147 17 c-10 -9 -11 -8 -5 6 3 10 9 15 12 12 3 -3 0
-11 -7 -18z m-122 -32 c0 -5 -4 -3 -9 5 -5 8 -9 22 -9 30 0 16 17 -16 18 -35z
m97 -22 c-8 -15 -15 -25 -16 -21 0 12 23 58 27 54 3 -2 -2 -17 -11 -33z m19
-12 c-21 -43 -29 -39 -8 4 9 19 18 33 21 31 2 -2 -4 -18 -13 -35z m874 -39 c6
-20 8 -38 6 -40 -5 -5 -55 102 -55 116 1 17 40 -43 49 -76z m-903 -187 c19
-153 16 -447 -4 -467 -7 -7 -12 -22 -12 -34 0 -37 -29 -38 -45 -1 -61 146 -68
617 -12 720 l21 38 18 -63 c10 -35 25 -121 34 -193z m104 155 c-7 -41 -8 -39
-8 25 0 47 2 62 7 45 5 -14 5 -45 1 -70z m238 78 c7 -7 12 -15 12 -19 0 -7
-185 -1 -207 6 -7 3 -13 9 -13 15 0 15 193 13 208 -2z m480 -17 c19 -12 11
-55 -12 -59 -13 -3 -16 0 -11 9 5 7 1 17 -9 25 -31 22 0 46 32 25z m-473 -67
c-36 -43 -37 -48 -27 -78 17 -46 15 -70 -9 -125 -15 -35 -30 -52 -55 -64 -42
-21 -44 -21 -44 -2 0 9 11 20 24 25 13 4 33 21 46 37 22 28 23 62 6 133 -5 20
2 35 34 73 53 61 75 62 25 1z m295 27 c0 -12 -7 -18 -17 -17 -37 2 -38 36 -2
36 12 0 19 -7 19 -19z m90 5 c0 -9 -8 -12 -25 -8 -14 2 -25 8 -25 13 0 5 11 9
25 9 14 0 25 -6 25 -14z m0 -38 c0 -11 -13 -10 -44 2 -14 5 -26 16 -26 24 0
11 6 11 35 -2 19 -9 35 -20 35 -24z m50 32 c0 -5 -5 -10 -11 -10 -5 0 -7 5 -4
10 3 6 8 10 11 10 2 0 4 -4 4 -10z m-723 -52 c-3 -8 -6 -5 -6 6 -1 11 2 17 5
13 3 -3 4 -12 1 -19z m727 -42 c6 -26 5 -28 -8 -17 -9 8 -16 28 -16 45 1 35
12 21 24 -28z m86 45 c0 -5 -7 -14 -15 -21 -17 -14 -21 -35 -4 -25 6 4 16 -1
23 -11 8 -11 21 -15 35 -11 17 4 21 1 21 -19 0 -18 -4 -22 -17 -17 -16 6 -16
5 -4 -10 12 -16 10 -16 -33 -11 -49 7 -58 -2 -30 -31 25 -25 57 -14 79 27 16
31 18 42 9 65 -30 75 -29 70 -8 51 13 -11 29 -14 48 -11 20 4 27 2 22 -6 -4
-6 -15 -11 -25 -11 -10 0 -18 -7 -18 -17 1 -86 -27 -133 -77 -133 -30 0 -66
43 -66 79 0 18 3 22 9 13 6 -10 10 -6 15 14 5 18 3 30 -3 32 -7 2 -5 14 6 33
17 28 33 38 33 20z m-513 -28 c-3 -3 -11 -2 -17 2 -9 6 -9 10 1 16 14 8 27 -7
16 -18z m-205 -28 c-22 -44 -32 -44 -32 0 0 31 3 35 25 35 l25 0 -18 -35z m44
3 c-9 -13 -16 -43 -16 -69 0 -54 -8 -81 -21 -73 -22 13 -3 122 27 155 23 26
30 16 10 -13z m-342 7 c15 -11 16 -15 5 -15 -8 0 -24 7 -35 15 -14 11 -15 14
-4 14 8 0 24 -6 34 -14z m422 -21 c23 -34 7 -49 -40 -40 -41 8 -44 18 -16 46
26 26 36 25 56 -6z m169 -1 c15 1 21 -5 23 -25 l3 -28 -65 0 -66 0 0 29 c0 34
13 41 55 30 17 -4 39 -7 50 -6z m317 0 c10 -9 18 -26 18 -37 0 -44 -14 -44
-67 -1 -29 24 -50 45 -47 47 12 12 80 6 96 -9z m241 10 c-7 -2 -19 -2 -25 0
-7 3 -2 5 12 5 14 0 19 -2 13 -5z m-453 -209 l8 -169 -2 163 c-1 89 -1 162 1
162 3 0 11 -6 19 -14 11 -12 14 -55 14 -223 0 -295 -26 -443 -76 -443 -10 0
-11 6 -4 26 6 14 10 33 9 42 0 9 -6 1 -13 -18 -7 -19 -18 -35 -24 -34 -32 3
-35 6 -16 14 17 7 24 21 29 60 4 28 4 54 1 57 -3 4 -6 -8 -6 -25 0 -17 -5 -34
-10 -37 -13 -8 -12 7 4 80 9 38 15 51 16 35 8 -70 18 188 14 345 -4 162 -3
178 11 164 12 -12 18 -54 25 -185z m-680 182 c0 -11 -19 -15 -25 -6 -3 5 1 10
9 10 9 0 16 -2 16 -4z m247 -78 c-3 -7 -5 -2 -5 12 0 14 2 19 5 13 2 -7 2 -19
0 -25z m-17 13 c0 -6 -4 -13 -10 -16 -5 -3 -10 1 -10 9 0 9 5 16 10 16 6 0 10
-4 10 -9z m715 -21 c8 -13 -5 -13 -25 0 -13 8 -13 10 2 10 9 0 20 -4 23 -10z
m-969 -58 c-10 -2 -22 0 -28 6 -6 6 0 7 19 4 21 -5 23 -7 9 -10z m241 -14 c-3
-7 -5 -2 -5 12 0 14 2 19 5 13 2 -7 2 -19 0 -25z m99 -15 c-11 -84 -29 -152
-38 -147 -13 8 0 94 27 182 10 30 17 8 11 -35z m843 43 c-2 -1 -19 -8 -36 -14
-37 -12 -45 -6 -10 8 22 9 54 13 46 6z m-114 -18 c26 -12 35 -38 13 -38 -7 0
-26 11 -43 25 -22 18 -26 24 -13 25 9 0 29 -5 43 -12z m-435 -38 c0 -24 -5
-42 -12 -45 -7 -2 -73 -6 -146 -9 l-133 -4 3 26 c2 20 8 26 23 25 24 -3 75 16
75 28 0 11 34 16 118 18 l72 1 0 -40z m-616 19 c-3 -5 -11 -9 -19 -9 -8 0 -16
4 -19 9 -3 5 5 9 19 9 14 0 22 -4 19 -9z m216 -29 c0 -5 -11 -10 -25 -10 -14
0 -25 5 -25 10 0 6 11 10 25 10 14 0 25 -4 25 -10z m943 3 c-7 -2 -21 -2 -30
0 -10 3 -4 5 12 5 17 0 24 -2 18 -5z m-263 -38 c11 -13 8 -15 -14 -15 -25 0
-33 10 -19 23 10 11 19 8 33 -8z m-694 -82 c-10 -10 -19 5 -10 18 6 11 8 11
12 0 2 -7 1 -15 -2 -18z m1016 -42 c7 10 8 6 5 -16 -5 -27 -4 -28 9 -11 27 37
23 9 -8 -55 -17 -35 -32 -59 -35 -52 -2 6 3 26 12 43 9 18 14 34 11 37 -2 3
-12 -9 -21 -26 -18 -37 -25 -40 -18 -8 5 22 5 22 -10 2 -21 -26 -21 -12 0 45
23 63 37 80 41 50 3 -18 6 -20 14 -9z m-922 -12 c0 -10 -4 -19 -10 -19 -5 0
-10 12 -10 26 0 14 4 23 10 19 6 -3 10 -15 10 -26z m-87 10 c-8 -8 -16 -8 -30
0 -16 9 -14 10 12 11 21 0 26 -3 18 -11z m2 -29 c3 -5 -1 -10 -9 -10 -8 0 -18
5 -21 10 -3 6 1 10 9 10 8 0 18 -4 21 -10z m391 -6 c-3 -9 -6 -21 -6 -27 0 -8
-28 -13 -83 -14 -45 -1 -110 -5 -144 -9 l-63 -6 0 31 c0 30 1 30 58 33 31 2
99 4 150 5 81 2 93 0 88 -13z m459 -4 c33 -27 9 -35 -123 -37 -136 -3 -142 -1
-121 38 10 19 18 20 120 16 68 -3 115 -9 124 -17z m-772 -329 c-18 -29 -30
166 -17 256 8 51 10 40 14 -97 3 -85 4 -157 3 -159z m-283 283 c-8 -8 -23 -20
-34 -25 -13 -6 -10 0 9 15 34 29 43 33 25 10z m187 -6 c-3 -8 -6 -5 -6 6 -1
11 2 17 5 13 3 -3 4 -12 1 -19z m-182 -28 c-3 -5 -11 -10 -16 -10 -6 0 -7 5
-4 10 3 6 11 10 16 10 6 0 7 -4 4 -10z m1316 -17 c-12 -20 -14 -14 -5 12 4 9
9 14 11 11 3 -2 0 -13 -6 -23z m73 -40 c-30 -70 -49 -104 -62 -115 -21 -18
-27 1 -10 35 9 18 28 58 43 91 22 47 30 55 37 42 6 -11 3 -29 -8 -53z m-254
47 c18 -12 2 -12 -25 0 -13 6 -15 9 -5 9 8 0 22 -4 30 -9z m-954 -46 c-3 -8
-10 -12 -16 -9 -7 4 -6 14 2 28 12 24 24 8 14 -19z m394 11 c0 -21 -5 -22 -52
-21 -29 1 -87 -4 -128 -11 -101 -16 -100 -16 -100 11 0 23 3 24 93 30 50 3
108 7 127 9 19 1 41 2 48 3 6 0 12 -9 12 -21z m585 3 c12 -11 -42 0 -65 14
-10 6 -3 7 20 2 19 -3 40 -10 45 -16z m-115 -3 c-1 -33 -18 -37 -159 -37 -78
0 -144 2 -147 5 -3 3 -1 14 4 24 9 16 25 18 156 18 91 0 146 -4 146 -10z
m-1033 -49 c-2 -6 -9 -1 -16 12 -6 12 -9 28 -5 34 8 13 27 -28 21 -46z m1484
0 c50 -9 65 -28 40 -50 -19 -17 -22 -16 -75 23 -59 44 -75 71 -28 48 15 -8 43
-17 63 -21z m-1511 20 c0 -3 -4 -8 -10 -11 -5 -3 -10 -1 -10 4 0 6 5 11 10 11
6 0 10 -2 10 -4z m197 -32 c-7 -7 -37 7 -37 17 0 6 9 5 21 -1 11 -7 19 -14 16
-16z m-12 -24 c3 -6 -1 -7 -9 -4 -18 7 -21 14 -7 14 6 0 13 -4 16 -10z m-119
-70 c2 -33 5 -69 9 -80 6 -19 5 -20 -14 -8 -13 8 -20 22 -19 38 1 14 0 41 -1
60 l-4 35 -7 -35 -8 -35 1 40 c1 26 6 39 15 38 6 -2 12 2 12 9 0 6 3 8 7 4 4
-4 8 -34 9 -66z m119 40 c3 -5 -1 -10 -9 -10 -9 0 -16 5 -16 10 0 6 4 10 9 10
6 0 13 -4 16 -10z m900 -18 c-3 -3 -11 0 -18 7 -9 10 -8 11 6 5 10 -3 15 -9
12 -12z m-925 -36 c-9 -39 -34 -79 -43 -69 -11 11 -8 25 4 17 8 -4 9 0 4 15
-4 13 0 30 12 45 25 35 32 32 23 -8z m935 14 c3 -5 2 -10 -4 -10 -5 0 -13 5
-16 10 -3 6 -2 10 4 10 5 0 13 -4 16 -10z m-985 -104 c0 -6 -4 -6 -10 0 -5 5
-12 32 -15 59 l-5 50 14 -50 c8 -27 15 -54 16 -59z"/>
<path d="M793 600 c0 -41 2 -58 4 -37 2 20 2 54 0 75 -2 20 -4 3 -4 -38z"/>
<path d="M782 500 c0 -14 2 -19 5 -12 2 6 2 18 0 25 -3 6 -5 1 -5 -13z"/>
<path d="M772 435 c0 -16 2 -22 5 -12 2 9 2 23 0 30 -3 6 -5 -1 -5 -18z"/>
<path d="M1707 274 c-10 -19 -12 -32 -7 -29 12 7 33 55 27 61 -2 2 -11 -12
-20 -32z"/>
</g>
</svg>
